<svg width="176" height="32" viewBox="0 0 176 32" fill="none" xmlns="http://www.w3.org/2000/svg">
<g clip-path="url(#clip0_969_54)">
<path d="M31.4504 14.5455H10.6555C10.3789 14.5455 10.1022 14.5455 9.87171 14.5917C8.30402 14.8225 7.52018 15.7922 7.33575 17.6393C7.19743 19.2093 6.09083 20.2713 4.52314 20.3175C3.27822 20.3637 1.98719 20.3175 0.742264 20.3175C0.188964 20.3175 0.0506391 20.1328 0.0506391 19.6248C0.00453075 17.4084 -0.0415776 17.4084 2.21773 17.4084C3.00157 17.4084 3.83152 17.4546 4.61536 17.3622C6.09083 17.2699 7.15132 16.1616 7.28964 14.684C7.42797 12.837 8.25792 11.8211 9.87171 11.6364C10.1022 11.5902 10.3328 11.5902 10.5633 11.5902H29.6061C29.7444 11.7287 29.8827 11.8673 30.021 12.052C30.5282 12.6523 30.9432 13.3449 31.266 14.0375C31.3121 14.1761 31.4043 14.3146 31.4504 14.4531C31.4504 14.4839 31.4504 14.5147 31.4504 14.5455Z" fill="#082760"/>
<path d="M32.0038 17.5469V18.101C31.9577 18.7936 31.8194 19.4863 31.635 20.0866C31.635 20.1327 31.5889 20.1789 31.5889 20.2251C31.5889 20.2713 31.5889 20.3175 31.5427 20.3175H10.379C10.1946 20.3175 10.0102 20.3174 9.82573 20.3636C8.35027 20.5945 7.47421 21.6104 7.28978 23.1804C7.10534 25.2121 6.09096 26.1356 4.06219 26.1356C2.95559 26.1356 1.849 26.0895 0.742396 26.1356C0.235205 26.1356 0.0507715 25.9509 0.0507715 25.443C0.00466316 23.1804 -0.0414452 23.1804 2.17175 23.1804C2.95559 23.1804 3.78554 23.2265 4.56939 23.1342C6.18318 22.9957 7.15145 21.9336 7.28978 20.3636C7.4281 18.6551 8.35027 17.6392 9.87184 17.4084C10.0563 17.3622 10.2407 17.3622 10.4712 17.3622H32.0499C32.0038 17.4545 32.0038 17.5007 32.0038 17.5469Z" fill="#082760"/>
<path d="M25.9175 2.90909H10.379C10.1946 2.90909 10.0102 2.90909 9.82573 2.95527C8.35026 3.18615 7.47421 4.20202 7.28977 5.77201C7.10534 7.80375 6.09096 8.72727 4.06219 8.72727H0.742395C0.235203 8.72727 0.0507699 8.54257 0.0507699 8.03463C5.07906e-05 5.81818 -0.0414466 5.81818 2.17175 5.81818C2.95559 5.81818 3.78554 5.86436 4.56938 5.77201C6.18317 5.63348 7.15145 4.57143 7.28977 3.00144C7.4281 1.29293 8.35026 0.277056 9.87184 0.046176C10.0563 0 10.2407 0 10.4251 0H20.569C21.5833 0.046176 22.5516 0.323232 23.4277 0.784993C24.0732 1.10823 24.6726 1.52381 25.1798 2.03175C25.4103 2.26263 25.687 2.58586 25.9175 2.90909Z" fill="#082760"/>
<path d="M27.2546 7.01875C27.2546 7.38816 27.2546 7.71139 27.1624 8.03463C27.1163 8.26551 27.0702 8.49639 27.0241 8.68109V8.72727H10.8862C10.5173 8.72727 10.1945 8.72727 9.87179 8.77344C8.21189 9.00432 7.52027 9.88167 7.33583 11.9134C7.1514 13.391 6.0448 14.4531 4.61544 14.4993C3.32441 14.5454 2.03338 14.4993 0.742346 14.4993C0.235154 14.4993 0.0968294 14.3146 0.0968294 13.8528C1.96695e-06 11.5902 -0.0414956 11.5902 2.21781 11.5902C3.04776 11.5902 3.87771 11.5902 4.70766 11.544C6.18313 11.4055 7.19751 10.3434 7.33583 8.8658C7.47416 7.01875 8.30411 6.04906 9.9179 5.86435C10.1484 5.81818 10.379 5.81818 10.5634 5.81818H27.1624C27.1624 5.91053 27.2085 5.9567 27.2085 6.04906C27.2085 6.37229 27.2546 6.69552 27.2546 7.01875Z" fill="#082760"/>
<path d="M29.8827 23.2265C29.6061 23.5498 29.2833 23.873 28.9606 24.1501C27.854 25.0736 26.4707 25.7662 24.9491 26.0433C24.5803 26.1356 24.2114 26.1818 23.7964 26.1818H10.3789C10.1945 26.1818 10.01 26.1818 9.82561 26.228C8.35015 26.4589 7.47409 27.4286 7.28966 28.9985C7.10522 30.9841 6.04473 32 4.06208 32H0.650061C0.188978 32 0.0506535 31.8615 0.0506535 31.3997C-0.0415631 29.8297 0.69617 29.0447 2.26385 29.0447C3.0938 29.0447 3.92375 29.0909 4.7537 28.9524C6.27527 28.7677 7.19744 27.7518 7.28966 26.1818C7.42798 24.4733 8.35015 23.4574 9.87172 23.2265C10.0562 23.1804 10.2406 23.1804 10.4711 23.1804H16.0502C20.2 23.1804 25.8713 23.1804 29.8827 23.2265Z" fill="#082760"/>
<path d="M58.6084 19.163C58.6084 22.303 56.2569 24.1962 52.1532 24.1962H42.8394V6.5108H52.1071C55.9802 6.5108 58.009 7.94226 58.009 10.5281C58.009 12.6984 56.4874 13.9451 53.5365 14.1299C56.7641 14.3607 58.6084 16.2078 58.6084 19.163ZM47.0352 9.28137V14.0837H51.1389C53.0754 14.0837 53.9515 13.2987 53.9515 11.6825C53.9515 10.0664 53.0293 9.23519 51.0927 9.23519L47.0352 9.28137ZM51.5538 21.4257C53.3982 21.4257 54.4125 20.5483 54.4125 18.886C54.4125 17.2236 53.4443 16.3463 51.5538 16.3463H47.0352V21.3795L51.5538 21.4257Z" fill="#082760"/>
<path d="M60.4062 15.5613C60.4062 9.97404 63.8183 6.46466 69.1668 6.46466C74.5154 6.46466 77.9274 9.97404 77.9274 15.5613C77.9274 21.1486 74.5154 24.6118 69.1668 24.6118C63.8183 24.6118 60.4062 21.1025 60.4062 15.5613ZM73.6393 15.5613C73.6393 12.1443 71.795 9.74316 69.1668 9.74316C66.5387 9.74316 64.6482 12.1443 64.6482 15.5613C64.6482 18.9784 66.4925 21.3333 69.1668 21.3333C71.8411 21.3333 73.6393 18.9322 73.6393 15.5613Z" fill="#082760"/>
<path d="M96.74 13.6681V24.1962H92.5903V20.9177C91.9448 23.2265 89.8238 24.6118 86.7806 24.6118C83.2764 24.6118 81.0171 22.6262 81.0171 19.5786C81.0171 16.3001 83.6453 14.1299 87.5645 14.1299C90.2387 14.1299 91.9909 15.2381 92.6364 17.316V13.8066C92.6364 11.3131 91.2992 9.74313 89.086 9.74313C87.0112 9.74313 85.6279 11.1746 85.6279 13.391L81.2476 11.8672C81.9854 8.49638 84.8902 6.41846 89.086 6.41846C93.8813 6.46463 96.74 9.09667 96.74 13.6681ZM92.5442 19.1169C92.5442 17.6392 91.1148 16.7157 88.8555 16.7157C86.5962 16.7157 85.1668 17.6854 85.1668 19.1169C85.1668 20.5483 86.5962 21.5642 88.8555 21.5642C91.1148 21.5642 92.5442 20.5945 92.5442 19.1169Z" fill="#082760"/>
<path d="M112.278 6.92639H116.613L110.618 24.1962H105.178L99.1836 6.92639H103.564L107.898 19.9942L112.278 6.92639Z" fill="#082760"/>
<path d="M124.313 0V4.10967H119.748V0H124.313ZM124.082 6.92641V24.1962H119.932V6.92641H124.082Z" fill="#082760"/>
<path d="M131.505 17.9163C131.459 20.3636 132.75 21.5642 135.332 21.5642C137.453 21.5642 138.652 20.8716 138.652 19.671C138.652 18.5628 137.684 17.9625 134.18 16.9004C129.707 15.6075 128.093 14.0837 128.093 11.2208C128.093 8.35788 130.86 6.46466 135.102 6.46466C139.113 6.46466 141.926 8.35788 142.479 11.3593L138.514 12.7446C138.514 10.7129 137.361 9.51228 135.102 9.51228C133.257 9.51228 132.151 10.1587 132.151 11.2208C132.151 12.2828 133.119 12.9293 136.577 13.9452C141.096 15.2843 142.756 16.8081 142.756 19.671C142.756 22.7186 139.851 24.6118 135.286 24.6118C130.721 24.6118 128.047 22.7648 127.448 19.3478L131.505 17.9163Z" fill="#082760"/>
<path d="M157.88 23.7345C156.681 24.3348 155.205 24.6118 153.638 24.6118C149.857 24.6118 148.012 22.7648 148.012 19.0245V9.69699H144.231V6.88025H145.061C147.782 6.88025 148.75 5.91055 148.75 3.37087V1.66235H152.531V3.37087C152.531 5.77202 151.563 6.69554 148.75 6.88025H157.142V9.69699H152.116V18.1934C152.116 20.1789 152.808 21.1486 154.375 21.1486C155.436 21.1486 156.358 20.6869 157.142 19.7172L157.88 23.7345Z" fill="#082760"/>
<path d="M176 13.6681V24.1962H171.85V20.9177C171.205 23.2265 169.084 24.6118 166.04 24.6118C162.536 24.6118 160.277 22.6262 160.277 19.5786C160.277 16.3001 162.905 14.1299 166.824 14.1299C169.499 14.1299 171.251 15.2381 171.896 17.316V13.8066C171.896 11.3131 170.559 9.74313 168.346 9.74313C166.271 9.74313 164.888 11.1746 164.888 13.391L160.507 11.8672C161.245 8.49638 164.15 6.41846 168.346 6.41846C173.187 6.46463 176 9.09667 176 13.6681ZM171.85 19.1169C171.85 17.6392 170.421 16.7157 168.161 16.7157C165.902 16.7157 164.473 17.6854 164.473 19.1169C164.473 20.5483 165.902 21.5642 168.161 21.5642C170.421 21.5642 171.85 20.5945 171.85 19.1169Z" fill="#082760"/>
</g>
<defs>
<clipPath id="clip0_969_54">
<rect width="176" height="32" fill="white"/>
</clipPath>
</defs>
</svg>
